<svg height="50" viewBox="0 0 91 91" width="50" xmlns="http://www.w3.org/2000/svg"><path d="M79.565 58.896c-1.521.144-2.96.281-4.133 1.125-1.741 1.252-2.902 2.807-4.023 4.313-2.016 2.701-4.099 5.494-9.298 5.756-.227.012-.451.018-.675.018-3.389 0-6.246-1.289-9.015-2.538-1.528-.688-3.109-1.4-4.748-1.876-3.758-1.091-5.852.07-8.747 1.682-.74.413-1.514.841-2.356 1.258-4.688 2.298-9.478.683-12.501-4.227-.508-.829-.976-1.775-1.471-2.779-1.373-2.779-2.927-5.93-5.633-6.646-1.304-.351-2.718-.143-4.214.08-2.49.363-5.307.78-7.614-1.756-.66-.725-1.176-1.577-1.628-2.471 2.752 16.621 20.475 29.488 41.872 29.488 18.779 0 34.732-9.918 40.212-23.585a8.277 8.277 0 01-2.867 1.623c-1.044.336-2.122.436-3.161.535z" fill="#FAE58F"/><path d="M45.381 32.197c-6.395 0-11.797 2.622-11.797 5.725 0 .976.538 1.905 1.471 2.72 1.351-4.665 19.298-4.665 20.646 0 .933-.815 1.472-1.744 1.472-2.72 0-3.103-5.4-5.725-11.792-5.725z" fill="#B07072"/><path d="M45.381 12.324c-21.038 0-38.527 12.436-41.726 28.648-.497 3.28.092 8.302 2.73 11.195 1.705 1.873 3.753 1.572 6.12 1.223 1.601-.235 3.25-.479 4.896-.041 3.447.911 5.183 4.427 6.713 7.529.477.969.927 1.88 1.396 2.643 2.563 4.163 6.418 5.512 10.314 3.593a46.51 46.51 0 002.282-1.215c3.005-1.674 5.609-3.115 10.04-1.828 1.752.51 3.389 1.245 4.97 1.96 2.895 1.306 5.652 2.54 8.91 2.374 4.409-.222 6.006-2.366 8.028-5.081 1.198-1.608 2.438-3.269 4.392-4.673 1.545-1.112 3.279-1.277 4.961-1.436.994-.094 1.935-.182 2.803-.46 1.671-.539 3.095-1.773 4.347-3.772a.803.803 0 01.317-.283c.488-2.068.756-4.197.756-6.377-.001-18.747-18.955-33.999-42.249-33.999zm8.274 31.48c-1.696.854-4.213 1.355-6.847 1.491-.023 0-.047.002-.073.004-.448.021-.901.035-1.354.035a29.277 29.277 0 01-1.431-.039c-2.632-.136-5.146-.635-6.843-1.489-3.185-1.343-5.212-3.456-5.212-5.884 0-4.157 5.923-7.414 13.486-7.414 7.558 0 13.48 3.256 13.48 7.414 0 2.426-2.026 4.539-5.206 5.882z" fill="#F17897"/><g fill="#434B56"><path d="M45.565 83.45C20.543 83.45.186 66.796.186 46.324c0-20.471 20.356-37.123 45.379-37.123 25.019 0 45.373 16.652 45.373 37.123 0 20.472-20.354 37.126-45.373 37.126zm0-69.688c-22.507 0-40.819 14.608-40.819 32.563 0 17.955 18.312 32.565 40.819 32.565 22.505 0 40.813-14.61 40.813-32.565S68.07 13.762 45.565 13.762z"/><path d="M45.565 46.771c-8.508 0-14.922-3.804-14.922-8.848 0-5.045 6.414-8.849 14.922-8.849 8.504 0 14.917 3.804 14.917 8.849s-6.413 8.848-14.917 8.848zm0-13.136c-6.326 0-10.362 2.54-10.362 4.289 0 1.748 4.036 4.285 10.362 4.285 6.321 0 10.356-2.537 10.356-4.285.001-1.75-4.034-4.289-10.356-4.289z"/><path d="M36.278 43.881a2.518 2.518 0 01-2.035-1.006c-.349-.467-.526-1.027-.526-1.666 0-4.108 6.383-5.567 11.849-5.567h.02c5.46.004 11.825 1.463 11.825 5.567 0 1.522-1.102 2.671-2.561 2.671-.986 0-1.79-.5-3.004-1.253-1.553-.966-3.9-2.423-6.28-2.423-2.382 0-4.731 1.459-6.287 2.423-1.214.754-2.015 1.252-3.001 1.254z"/><path d="M61.605 71.545c-3.681 0-6.682-1.354-9.59-2.665-1.553-.699-3.016-1.359-4.555-1.808-3.188-.925-4.867.01-7.652 1.561-.758.42-1.54.855-2.422 1.287-5.326 2.619-10.962.749-14.354-4.76-.546-.889-1.027-1.862-1.536-2.896-1.298-2.627-2.637-5.344-4.713-5.893-1.027-.271-2.295-.087-3.639.111-2.557.377-6.059.896-8.885-2.21C.186 49.804.011 42.269 1.174 38.584a2.28 2.28 0 014.35 1.374c-.875 2.77-.498 8.386 2.107 11.242 1.089 1.196 2.197 1.16 4.847.768 1.661-.245 3.543-.524 5.477-.006 4.075 1.077 6.045 5.071 7.63 8.282.461.935.897 1.819 1.332 2.523 1.023 1.664 3.896 5.297 8.46 3.059.79-.39 1.516-.796 2.211-1.181 3.015-1.679 6.127-3.415 11.144-1.954 1.849.536 3.529 1.296 5.155 2.028 2.733 1.233 5.307 2.382 8.25 2.249 3.732-.187 5.011-1.903 6.949-4.503 1.203-1.617 2.57-3.449 4.706-4.983 1.859-1.337 3.88-1.529 5.662-1.697.915-.086 1.778-.168 2.499-.399 1.336-.43 2.502-1.465 3.569-3.168a2.281 2.281 0 013.866 2.421c-1.66 2.652-3.636 4.315-6.038 5.089-1.194.384-2.401.497-3.466.599-1.381.13-2.573.244-3.43.861-1.563 1.122-2.607 2.522-3.711 4.004-2.11 2.83-4.502 6.039-10.378 6.334-.256.013-.51.019-.76.019zM13.93 35.469a2.28 2.28 0 01-1.553-3.95l7.559-7.033a2.28 2.28 0 113.107 3.339l-7.559 7.032c-.44.41-.998.612-1.554.612z"/><path d="M26.559 56.171a2.276 2.276 0 01-1.899-1.016l-5.046-7.564a2.28 2.28 0 113.794-2.532l5.045 7.565a2.28 2.28 0 01-1.894 3.547zm-3.461-16.733a2.281 2.281 0 01-.751-4.437l5.273-1.834a2.28 2.28 0 011.499 4.309l-5.273 1.834a2.254 2.254 0 01-.748.128zm29.801 19.946a2.273 2.273 0 01-1.76-.829l-4.354-5.276a2.28 2.28 0 013.518-2.903l4.354 5.277a2.278 2.278 0 01-1.758 3.731zm15.132-9.631a2.28 2.28 0 01-1.122-4.268l7.794-4.391a2.28 2.28 0 013.106.868 2.278 2.278 0 01-.868 3.105l-7.793 4.391a2.25 2.25 0 01-1.117.295zm3.893-14.284a2.282 2.282 0 01-2.22-1.758l-2.52-10.702a2.28 2.28 0 014.44-1.045l2.52 10.702a2.281 2.281 0 01-2.22 2.803zM55.26 25.683a2.279 2.279 0 01-1.309-4.149l5.896-4.128a2.28 2.28 0 012.617 3.738l-5.898 4.126c-.4.279-.855.413-1.306.413zm-14.284.917a2.28 2.28 0 01-1.377-.463l-6.65-5.046a2.278 2.278 0 01-.438-3.193 2.278 2.278 0 013.195-.44l6.65 5.045a2.28 2.28 0 01-1.38 4.097zm-7.793 32.784a2.276 2.276 0 01-1.666-.722 2.284 2.284 0 01.108-3.226l3.441-3.213a2.283 2.283 0 013.223.107c.86.922.811 2.365-.108 3.226L34.74 58.77c-.44.41-.999.614-1.557.614z"/></g></svg>